<?xml version="1.0" encoding="UTF-8" standalone="no"?>
<svg
   baseprofile="tiny"
   fill="#ececec"
   height="410"
   stroke-linecap="round"
   stroke-linejoin="round"
   stroke-width=".1"
   version="1.2"
   viewbox="0 0 600 410"
   width="600"
   id="svg28"
   sodipodi:docname="europe.svg"
   inkscape:version="1.2.2 (732a01da63, 2022-12-09)"
   xmlns:inkscape="http://www.inkscape.org/namespaces/inkscape"
   xmlns:sodipodi="http://sodipodi.sourceforge.net/DTD/sodipodi-0.dtd"
   xmlns="http://www.w3.org/2000/svg"
   xmlns:svg="http://www.w3.org/2000/svg">
  <defs
     id="defs32" />
  <sodipodi:namedview
     id="namedview30"
     pagecolor="#ffffff"
     bordercolor="#000000"
     borderopacity="0.25"
     inkscape:showpageshadow="2"
     inkscape:pageopacity="0.0"
     inkscape:pagecheckerboard="0"
     inkscape:deskcolor="#d1d1d1"
     showgrid="false"
     inkscape:zoom="1.1725146"
     inkscape:cx="150.53117"
     inkscape:cy="98.93267"
     inkscape:window-width="1920"
     inkscape:window-height="974"
     inkscape:window-x="-11"
     inkscape:window-y="-11"
     inkscape:window-maximized="1"
     inkscape:current-layer="svg28"
     showguides="true">
    <sodipodi:guide
       position="-435.81547,677.8005"
       orientation="1,0"
       id="guide134"
       inkscape:locked="false" />
  </sodipodi:namedview>
  <path
     d="m 268.54339,93.369577 -3.4,-0.1 -0.2,-1.7 -1.1,-1 -0.1,-1 4.7,2.6 z m -34.8,-8.1 h -1.8 l -1.4,-0.7 0.8,-1 1.7,0.4 z m 28.3,0.5 -1.3,0.7 h -1.3 l -1.3,1.3 -2.1,-1.1 -0.5,-1.1 0.1,-2.2 0.6,-1.4 2,-0.9 0.9,1.2 1.7,0.6 -0.5,1.7 z m -46.6,-6.6 1.8,0.7 1.6,1.6 0.1,1.4 -1.7,1.6 3.2,-0.3 0.8,1.2 1.7,-0.4 4.5,1.8 3.2,-0.9 0.7,1.4 -0.6,1.5 -2.2,1.6 1.4,1.2 2.1,-0.2 3.6,0.9 3.3,-2.5 1.1,-0.5 3.6,-0.3 5.1,-4.5 5.3,0.9 1.5,1.9 3.7,2.1 3.2,-0.2 1.3,2 0.8,2.5 1.9,1.3 2.8,0.5 0.7,2.6 1.8,4.100003 -0.3,2.7 -1.9,1.8 -0.7,1.6 1.6,1.4 3.3,2.1 1.4,1.7 -0.6,2.6 2,2.3 0.8,1.9 -0.7,2.6 -0.8,1.1 1.9,3.1 v 1.6 l 2.2,0.9 1.6,3.2 -0.4,2.3 -1.6,3.6 -0.9,0.7 -1.4,-0.6 v -0.9 l -1.5,-1.5 -2.2,-0.4 -0.8,0.6 1.5,1.5 -1.9,0.6 -3.5,1.5 -4.4,1 -0.6,1.2 -1.1,-0.1 -1.6,0.7 -0.6,1 -2,0.3 -0.8,1.3 -2.1,-0.4 -2.6,0.6 -1.1,0.6 -1.9,2.6 -1.9,-2 -0.5,0.7 2.5,3.4 2.3,1.3 0.6,1.6 -1.2,1.7 1.4,1.5 1.8,2.7 2.3,2 h 1.3 l 2.9,2.6 2.5,1.5 1.3,1.6 h 1.3 l 2.9,2.2 0.6,0.7 -0.2,2.8 -1.3,0.9 -2.3,-0.9 -0.7,2.9 -1,1 -2.9,0.8 -3.1,1.8 -0.6,1.3 2.5,2.8 0.1,1.3 -0.6,1.3 1.7,0.3 0.3,1.9 -0.3,1.5 -1.7,-0.4 -1.2,-0.9 -0.2,-1.1 -1.1,-0.5 -2.5,0.5 -1.5,-0.8 -2,-0.3 -0.1,1.4 -5.7,0.5 -3.9,1.5 -1.1,0.9 -3.8,0.5 -1.4,-1.9 -2.7,-0.4 -2.8,0.1 -0.2,1.9 -1,1.6 -1.6,0.5 0.1,-1.3 -1.2,-0.3 -0.9,-1.4 -3.5,-1.6 -0.7,0.5 -2.2,-1.2 -5.1,-2.3 1,1.6 -3.7,0.2 -1.1,-0.9 -0.8,0.2 -1.4,-1 h -1.3 l -1.3,1.2 0.2,1.5 -2.6,-0.2 -3.3,0.6 -2.8,-0.1 -1,-0.3 -1.1,-1.3 v -1.5 l 0.6,-2 -0.2,-2.4 0.3,-1.5 1,-1.8 1.4,-5.5 3.5,-3.8 -0.1,-1.3 -1.6,-0.6 -4.8,-0.8 -2,-1.4 -3,0.6 -2.1,-0.1 -0.3,-0.9 -1.4,-0.4 -1.8,0.7 -3.5,-4.3 -1.4,-0.1 0.6,-3 0.9,-0.9 v -1.4 l -2.8,-1.1 -1.5,-1.6 -0.3,-2.2 0.6,-1.7 2.3,-1.3 -0.4,-2 -1.7,-0.7 0.4,-1.5 -3,-2.3 0.6,-2.4 -1.9,-1.2 0.5,-0.8 2.2,-1.6 -0.7,-1.2 1.3,-2.8 v -1.2 l -3.1,-4.1 0.7,-1.1 1.8,-0.7 2.3,0.8 4.5,-1.3 0.7,-1 -1,-0.9 0.3,-0.9 2.6,-1.6 0.6,-2.6 -0.8,-1 -2.6,-0.3 -0.7,-1 0.6,-1.6 3.1,0.1 1.1,-3.8 0.7,-1.7 -0.1,-4.3 -1.7,-1.4 0.5,-2.700003 1.1,-1.4 0.9,-0.4 4,-0.3 4.5,0.1 1.9,2.2 -0.6,1.2 1.6,0.3 0.9,-2.4 1.4,0.8 1.1,-0.1 -0.5,-1.7 0.2,-1.6 0.9,-1.4 3.3,0.6 3.6,-0.3 0.1,-0.6 -2.8,-0.5 -0.9,-1.1 -0.2,-3.9 -1.5,-0.8 -1.6,0.3 v -1.5 l 3.4,-1.1 v -1 l -3.4,-3.8 -0.2,-1.6 2.7,0.1 5.2,1.3 3.1,-0.7 z"
     id="DE"
     name="Germany" />
  <path
     d="m 303.24339,333.76958 -1.2,2.5 -2.8,4.3 -1.5,5.1 0.3,2 1.6,1.4 -0.7,0.5 1.6,1.8 0.1,1.3 -1.8,1.9 -0.4,1.7 0.1,1.5 -2.9,-0.6 -1.4,0.3 -3.7,-1.4 -1.9,-2.8 -3,-2 h -3 l -1.4,-0.5 -2.9,-1.9 -3,-1.4 -2.6,-2.1 -1.7,-0.4 -1.5,-1 h -2.9 l -2.3,-1.6 -1.3,-2.3 1.3,-3.7 1.4,-0.8 0.9,-1.2 2.3,2.3 1.8,-0.8 1.4,-1.6 2.4,0.1 0.5,0.9 1.4,0.3 2.5,1.6 1.4,0.4 3.4,-1 3,0.4 2.8,-0.5 1.7,-0.6 1.2,-1 1.4,-0.3 3.5,0.3 2,-1.2 0.8,0.2 2,-1.2 z m -78.3,-41.5 0.7,0.9 1.8,5 -0.6,1.6 -1.3,2 0.8,2.8 -0.6,11.5 -0.6,2.9 -0.9,0.4 -2.9,-1.2 -1.5,0.3 -1.2,-0.6 -0.3,3 -1.8,2.1 -3,-0.2 -0.7,-0.6 -2.4,-3.8 -0.4,-4.3 0.6,-1.3 v -2.5 l 1.1,-0.1 v -1.7 l -1.8,-1.2 v -1.9 l 0.7,-1.4 -0.1,-2.6 -0.8,-0.9 -0.8,-2.3 -2.2,-2.4 0.1,-3.4 3.4,0.6 1.3,-0.3 3.1,-1.5 2.1,-2.5 1.4,-0.5 1.5,-1.8 0.7,0.9 2.2,0.8 1.2,1.5 0.9,0.5 -0.7,1.4 z m 8.3,-30.8 0.3,1.4 -2.5,0.5 -1.1,-1.1 2.9,-0.2 z m 37.9,-56.6 -0.2,0.9 -3.3,2.3 0.7,1.4 2.3,0.7 -1.6,2.1 0.3,1 1.3,0.2 -0.4,2 1.9,1.1 1.5,1.3 0.2,1.3 -1.5,0.1 0.7,-0.6 -2,-2.2 -2,0.9 -3.2,-0.9 -2.1,2 -1.5,0.4 -1.7,1.1 -3.2,1.2 -1.8,-0.4 -1,0.7 -0.4,3.1 0.8,0.6 1.5,2.6 1.7,1.1 -0.7,1.9 -0.9,0.7 -1.3,-0.5 -0.3,1.7 0.9,4.5 1.4,3.2 1.2,1.3 2.7,2.2 2.7,1.1 5.1,3.7 2.8,1.1 0.7,0.7 1.8,2.8 1.6,3.2 1.8,5.1 1.3,2.5 2.3,2.9 4.8,4.1 4.3,2.9 4,1.9 3,0.3 7,-0.4 2.6,0.7 0.4,1.2 -0.4,0.9 -2.9,2.1 v 1.7 l 1.5,1.2 7.1,3.2 7.2,2.6 2.2,1.4 2.7,2.1 6.4,2.9 1.1,1.4 4,3 1.8,2.4 0.5,1.8 -1.5,4.4 -1.6,-0.5 -1.9,-1.3 -3.1,-5.4 -5,-0.5 -2.9,-1.3 -0.7,-1.4 -2.3,-0.4 -1.3,0.9 -1.4,2 -1.5,3 -1.5,4.3 v 1.7 l 1.1,1.7 2.9,1 2.4,1.5 1.6,1.6 0.3,3.8 0.9,2.1 -0.9,1.3 -1.9,-0.3 -2.5,0.7 -1.7,1.4 -0.7,1.4 0.5,3.4 -0.3,1.4 -3.3,2.5 -1.6,2.5 -1,2.3 h -4.3 l -1.1,-1.5 -0.1,-2.2 0.6,-1.3 1.6,-0.7 0.9,-2.8 -0.5,-2 1.1,-1.6 2.8,-0.7 v -2.9 l -1.4,-1.3 -1.4,-5.1 -2.4,-4.3 -1.4,-3.8 -1.1,-1.8 -1.4,-1 -3.7,-0.3 -4.6,-2.6 -0.3,-1.1 0.6,-1.1 -1.1,-2.8 -2,-1.7 -2.6,0.6 -1.2,-0.1 -0.1,-1.5 -2,-1.3 -2.7,-0.2 -0.7,-0.7 -2.6,-4 -1.7,-1.7 -2.3,0.1 -3.9,-0.9 -2,0.7 -3.2,-2.6 -2.8,-0.9 -5.7,-5.3 -1.8,-2 -3.5,-2.2 -2.3,-3.2 -1.8,-1.2 -4,-1.4 -0.3,-1.3 -3.1,-3.1 -1.7,-1 -1.3,-2.1 -2.5,-0.5 0.1,-2.7 -1.2,-3.5 -1.7,-2.2 -1.2,-5.3 -0.8,-1.5 -1.8,-1.1 -4,-1.2 -5.7,-3.4 -1.1,-0.1 -3.4,-1.3 -2.1,-0.2 -2.6,1.2 -3.1,3.2 -2.5,3.4 -0.9,0.6 -3.4,1.2 -3,0.5 -0.2,-1.5 2.1,-2.6 -0.3,-2 -3.3,0.6 -5.1,-2.4 -0.9,-0.9 -0.1,-1.4 -0.7,-1.3 1.4,-2.5 0.8,-0.7 -0.5,-1.7 -3.2,-1.4 -1.5,-3.1 0.8,-0.4 1.9,0.2 1.7,-1.3 1.2,-0.3 0.8,-2.5 -1.8,-1.6 -1.7,-2.6 -0.9,-0.6 -0.1,-1.6 2.6,-1.7 1.4,0.7 2.4,-0.5 2.6,-1 3.1,0.8 2.4,-1.4 1.6,-2.2 -0.6,-1.5 3.4,-2.9 1,0.6 0.2,2.5 2.4,2 2.2,0.6 -0.4,1.2 1.3,1.2 0.9,1.4 1.2,-0.7 -0.7,-1.7 0.2,-1 2.2,-2.6 0.5,-1.1 v -2.9 l 2,-0.1 0.8,2.1 2,0.8 2.9,-1.1 0.7,0.1 1.4,1.9 1.2,-0.3 -1.5,-3.5 0.6,-1.8 1.3,-0.3 1,0.9 1.9,0.2 -0.5,-1.8 0.5,-3.1 3,0.3 0.9,0.8 2.1,0.4 1.1,-0.4 1.2,-2.2 1.4,-0.6 3.4,-0.3 3.1,0.2 4.7,-1.5 v 2.3 l 3.1,3.5 1.1,0.5 8.6,1.5 4,0.3 z"
     id="IT"
     name="Italy" />
  <path
     d="m 408.54339,66.669577 v 1.8 l -0.7,3.1 3.9,1 -1.3,1 -0.4,1.1 -3.6,-0.1 -1,2 -0.8,0.6 -2.6,0.6 -1.1,3 0.4,2.3 -1,1.5 -0.5,2 1.9,0.5 0.9,1.1 v 1 l -2,0.2 -1.7,-2.3 -1,0.7 -2.1,0.5 -1.4,1.2 -2,-0.2 -0.8,2.6 -1.8,-0.1 -3.3,1.3 -1.6,-0.9 -3.7,0.3 -1.6,0.3 -2.9,-0.4 -0.8,-3 -1.1,-0.9 -4.5,-2.2 -2.3,-0.7 -0.6,0.6 -1.3,-2 v -2.1 l 1,-3.1 -1.3,-1.3 -1.4,-0.6 -0.9,-1.3 -5.7,-0.1 -2.4,-0.6 -3.9,-1.4 -2,-1.2 -1.8,0.2 -0.6,-1.2 0.2,-1.6 -1.1,-2.4 -1.6,-2.9 -0.7,-3.8 2.8,-1.7 3.6,-1.9 4.7,-1.4 5.9,0.5 4.3,-0.1 1,0.9 1.6,-0.7 4.9,0.5 2.3,0.1 3.7,0.9 4.6,-0.4 1.7,-1.3 2.3,-0.2 2.4,2.9 6.1,1 0.9,0.4 5.4,3.1 2.6,2.1 1.5,0.7 z"
     id="LT"
     name="Lithuania" />
  <path
     d="m 367.44339,86.169577 0.6,-0.6 2.3,0.7 4.5,2.2 1.1,0.9 0.8,3 2.1,5.1 2.9,4.900003 1.7,3.6 0.9,3.9 -0.6,1.6 -4,1.7 -0.8,0.5 -2,2.7 v 1.2 l 3.3,1.3 1.8,1 0.8,1 -0.2,2.4 0.4,1.1 -0.8,1.5 0.1,1.3 1,1.6 1.2,1.8 v 1.3 l 2.7,2.8 1.9,2.8 1.4,1 -1.2,1.3 1.8,2.6 0.1,1.3 -1.2,1.8 -3,0.5 -4.8,4.6 -2.4,2.7 -3.4,4.4 -0.6,1 1.5,3.8 -0.1,1.8 1.9,1.4 -0.4,0.9 -3.3,-0.7 -0.9,-0.2 -5.7,-1.9 -0.8,-1.4 -1,-0.7 -3.1,-1 -3.6,-0.3 -3.2,0.2 -1.4,1.5 -1.8,-0.1 -2.4,-1 -3,0.1 -2.3,1 -1.1,2.1 -1.7,-0.6 -1.4,0.4 -0.6,-2.7 -1.4,-0.4 -3,-3 -2.2,1.3 -1,1.7 h -2.2 l -0.5,-1.5 -1.3,-0.2 -0.5,-1.6 -2.8,-2.2 -0.5,-1.8 -2.7,-0.8 -0.5,0.2 -3.5,-1.8 -1.8,1 -1,-0.6 -2.7,-2.3 1.4,-0.5 v -1.6 l -3.6,0.7 -3.3,-1.9 -2.2,-0.6 h -1.3 l 1.7,2.4 -3.5,2.5 -1,-0.4 -1.5,-1.9 -2,-1.8 -1.6,-0.9 1.6,-1.2 0.7,-1.1 -1.8,-1.2 -3.2,0.7 -0.8,-0.9 -2.7,-1.1 -4.6,-1.1 -1,-1.1 -0.3,-1.1 -3.3,-0.8 0.1,1.9 -2.1,0.4 1.6,-3.6 0.4,-2.3 -1.6,-3.2 -2.2,-0.9 v -1.6 l -1.9,-3.1 0.8,-1.1 0.7,-2.6 -0.8,-1.9 -2,-2.3 0.6,-2.6 -1.4,-1.7 -3.3,-2.1 -1.6,-1.4 0.7,-1.6 1.9,-1.8 0.3,-2.7 -1.8,-4.100003 -0.7,-2.6 2.8,0.9 0.7,-0.5 -0.1,-1.8 -4.1,-0.7 -0.1,-1.2 2,0.4 3.8,-1.4 6.5,-1.8 6.9,-1.7 3.3,-0.5 2,-2.2 1.9,-1.7 3.8,-0.7 1.3,-0.8 2.8,-1.2 6.6,-1.2 5.5,-0.4 5.4,2.3 -0.9,0.3 -3,-1.2 2.2,3.5 1.1,1.2 2,0.9 1.7,0.3 4.9,-0.5 2.2,-1.1 0.5,0.1 6.6,0.4 22.9,0.9 z"
     id="PL"
     name="Poland" />
  <path
     d="m 152.84339,130.66958 -0.6,1.2 -3.2,1.5 -3.9,-1.1 -1.2,0.6 -1.2,-0.7 -0.3,-1.3 2.8,-0.4 3.5,0.7 1.5,-0.6 1.2,0.5 z m -3.4,-5.3 1.5,1.4 -1.5,0.3 -1.6,-1 z m 18.1,-8.5 -3,-0.4 -0.9,-0.7 2.4,-1.7 3.2,-1.5 1.7,0.4 0.5,0.9 -1.1,1.1 z m -7.6,-11.5 -1.1,1.1 -0.6,-1.4 1.7,-1.4 z m -7.1,25.3 -2.6,-0.8 -2.2,0.5 -2.8,-0.7 -1.7,-1.3 1.2,-0.7 2.3,-0.1 4,0.7 1.2,-0.9 -0.6,-1 -2.3,-2.1 1.6,-2.7 1.4,-1 3.2,-3.8 0.9,-2 1.2,-5.5 1,-2 1.4,0.5 2,-0.8 3.4,-2 1,-1.7 1,-0.9 4,-1.6 2.1,-0.4 8.9,-0.500003 1.8,1.700003 2.7,0.6 0.1,4.3 -0.7,1.7 -1.1,3.8 -3.1,-0.1 -0.6,1.6 0.7,1 2.6,0.3 0.8,1 -0.6,2.6 -2.6,1.6 -0.3,0.9 1,0.9 -0.7,1 -4.5,1.3 -2.3,-0.8 -1.8,0.7 -0.7,1.1 3.1,4.1 v 1.2 l -1.3,2.8 0.7,1.2 -2.2,1.6 -0.5,0.8 1.9,1.2 -0.6,2.4 -1.2,-0.1 -2.4,-0.3 -0.7,-1.1 1.1,-1.3 1,-2.9 -2.6,-1.1 -1.7,-1.3 -1.9,0.4 -2.6,-1.4 -0.5,-1.6 -2.5,0.8 -1.1,-1.3 -1.5,1 -1.5,-0.8 -1.4,0.7 0.2,0.9 z m 18.1,-15.6 0.9,-0.9 -0.5,-1.9 -2.1,-0.3 -0.5,-0.8 0.4,-2.5 -2.8,-0.4 -0.4,-2.5 -1.5,0.3 -2.3,1.5 0.6,1.3 1.6,1.6 v 0.9 l -2.1,0.7 0.1,2.6 -0.2,1.6 5.4,1.4 z"
     id="NL"
     name="Netherlands" />
  <path
     d="m 221.84339,262.26958 -0.3,2.3 1,1.7 0.6,6.5 -1.8,3.2 0.1,3 -1.6,4.3 -0.8,1.1 -3.8,-2 -1.2,-1.1 1,-1.8 -2.2,-0.9 0.4,-1.7 -0.2,-0.9 -1.6,-0.5 1,-1.3 v -0.8 l -1.5,-1 -0.3,-0.9 1.3,-1.1 -0.6,-0.9 0.1,-1.3 0.9,-1.9 1.2,-0.9 2.8,-0.8 1.2,-1.1 1.9,0.6 0.6,-1.2 -0.2,-2.7 0.3,-1.1 1.3,0.5 z m -133.899998,-47.9 -0.4,1.4 -1.9,-2.4 1,-0.5 z m 84.399998,-55.6 2.1,1.2 h 1.4 l 2,-0.6 1.3,0.7 1.4,0.1 3.5,4.3 1.8,-0.7 1.4,0.4 0.3,0.9 2.1,0.1 3,-0.6 2,1.4 4.8,0.8 1.6,0.6 0.1,1.3 -3.5,3.8 -1.4,5.5 -1,1.8 -0.3,1.5 0.2,2.4 -0.6,2 v 1.5 l 1.1,1.3 -1.5,0.7 -0.8,1.4 -2.7,0.3 -0.8,-0.8 h -1.1 l -1.8,1.4 1.3,1.1 -0.6,0.9 -3.8,4 -2.1,0.9 -0.5,2.9 -3,2.2 -1.1,2.9 0.8,0.7 -0.3,1.5 -1.5,1 v 1 l 1.4,0.1 2.3,-1.6 -0.5,-1.3 2.3,-1.5 1.9,-0.1 2.2,0.3 0.8,2.2 -0.5,1.7 2.3,2.3 0.9,1.4 -2.6,1.7 0.1,1.6 0.9,0.6 1.7,2.6 1.8,1.6 -0.8,2.5 -1.2,0.3 -1.7,1.3 -1.9,-0.2 -0.8,0.4 1.5,3.1 3.2,1.4 0.5,1.7 -0.8,0.7 -1.4,2.5 0.7,1.3 0.1,1.4 0.9,0.9 5.1,2.4 3.3,-0.6 0.3,2 -2.1,2.6 0.2,1.5 -0.6,0.3 -0.8,0.3 -2.4,1.1 -3.9,3.4 -1.8,1 -0.7,1.8 -2,1.4 -2.4,0.5 -2.3,1 -1.1,-0.4 h -2.8 l -1.7,-1.2 -3.4,-0.8 -1.1,-1.8 -2.5,-0.1 -0.8,-1.5 -1.9,0.3 -1.5,0.7 -2,-0.1 -5.9,-1.8 -1.4,-1.4 -1.7,0.5 -1.6,1.6 -6.5,4.1 -2.6,4.3 -0.1,1.2 0.7,3.9 1.6,2.5 -3.1,-0.6 -3.8,1.1 -1.2,0.8 -4.7,-1.2 -2.1,1.1 -1.3,-1.2 -2.8,-1.2 v -1.5 l -2.6,-0.6 -0.9,0.7 -1.1,-1.5 -1.7,-0.3 -2.5,-1 -4,-1.1 -0.8,2.4 h -4.7 l -0.7,-0.4 -3.1,0.4 -3.199998,-2.1 -3.6,0.4 -2.2,-2.1 -2.2,-0.2 -4.4,-1.7 -1.8,0.4 0.3,-3.2 -4.3,-1.3 -0.5,-1.3 2,-0.5 1.9,-1.9 1.7,-7.1 1.3,-8.3 1,-1.6 1.2,-0.4 -1,-1.2 -1.1,1.5 0.7,-7.6 0.5,-2.8 0.9,-3 3.1,2.4 0.8,1 0.9,3.4 0.6,0.1 -1.1,-4.6 -1.8,-2.3 -3.6,-2.3 -0.5,-1.3 1.8,-0.6 -0.5,-1.8 -0.5,-5.9 -3,-0.6 -4.8,-2.6 -1.7,-2.6 -1.6,-1.9 -0.4,-1.7 0.9,-1.8 -0.8,-1.1 -1.4,-0.8 1.1,-1.6 -3,-0.2 -1.8,-0.5 -0.3,-1.1 1.3,-1.4 -1.6,-0.8 -2.6,0.2 -0.2,-1.7 -2.2,0.3 -1.2,-0.3 -1.1,-1.1 -1.3,0.2 -2.2,-0.4 -0.8,-0.7 -4.8,-1.3 -2,-0.1 -1.9,0.6 -1.1,-0.3 -1.3,-2.2 -3.1,-1.1 0.6,-0.7 3.1,-0.6 0.6,-0.7 -2.2,-0.9 -0.2,-1.2 1.6,0.3 0.1,-1.2 -4,0.1 -0.4,-1.3 0.5,-1.4 2.3,-1.2 5.8,-1.4 2.5,0.2 1.7,-0.2 3,-1.6 2.9,-0.4 2.7,0.8 2.5,2.8 1.2,1 3.1,-1.7 4.4,0.1 0.9,0.9 1.2,-1.7 1,1 4.7,-0.2 -1.5,-2.5 -0.2,-6 -1.3,-1.7 -2.1,-4.3 0.2,-1.4 3.2,0.3 2.7,-0.6 1.3,0.4 0.3,2.8 1.1,1.6 h 2.2 l 2.3,0.5 3,0.1 4.299998,0.8 1.8,-0.5 3.5,-2 -1.8,-0.7 -0.2,-0.7 0.9,-2.2 5.2,-2.5 3.7,-0.7 3.8,-1.3 2,-1.4 1.2,-1.8 0.5,-1.3 0.3,-6.8 1,-2.2 2.9,-1.6 6.4,-1.1 0.9,-0.5 0.9,2.2 v 1.2 l 2.9,2.4 3.2,-1 1.6,1.8 0.5,2 4.2,1.1 0.6,2 0.9,-0.3 3.6,0.4 1.6,1.1 -0.4,1.6 0.7,0.7 -0.7,1.4 0.5,0.6 2.3,0.3 2.2,-0.3 1.3,-0.6 0.5,-1.4 1.9,-0.6 -0.8,2.7 0.6,0.6 0.4,2 1.7,0.1 3.3,1.5 2.8,2.6 z"
     id="FR"
     name="France" />
  <path
     d="m 497.34339,209.76958 v 0.6 l -3.9,-0.8 -0.9,-0.9 z m -26.4,14.6 -1.9,-1.8 -2.2,-0.7 -2.2,0.2 -2.2,1.3 -1.6,0.5 -0.9,-0.3 -0.6,1.2 -4,-0.9 -1.8,-0.9 -1.5,-1.6 1.1,-0.7 2,-0.2 0.4,-1 -0.5,-1.4 2.5,-2.9 v -1.3 l 2.3,-1.7 0.4,-2 -1,-1.7 -0.5,-2.1 2.5,-1.6 2.1,1 1.9,0.2 2.1,0.8 1.6,-0.6 1.2,1.3 2.9,-0.4 0.6,-0.7 -2.9,-1.7 -0.2,-2.9 -1,-1.6 -2.1,-0.8 -2,-1.3 -0.9,-1.9 v -2.4 l -2.9,-2 -2.3,-1.2 -0.6,-1.2 0.6,-3.1 -0.6,-2.3 -1.4,-1.4 -1.4,0.7 -1.4,-1 -1.4,-1.9 -5.6,-0.6 -0.6,-1.2 -2.5,-0.3 -3.6,-2.4 -3.5,-1 -1.6,1 -0.8,-0.3 -1.2,1 -4,-0.1 -0.7,-0.2 -2.3,1.4 -0.2,0.6 -3.7,0.8 -0.2,1.4 -1.1,1.9 -8.4,1.2 -3.4,1.3 -1,1.2 -2.1,0.5 -4.3,-3.3 -1.2,-0.3 -3.6,0.7 -6.9,-1.4 -2.7,0.1 -2.7,-1.5 h -0.7 l -0.9,1.2 -2.1,0.9 -0.7,-1.7 -0.9,-0.7 -2.3,-0.4 -0.9,-1.1 -2.2,-0.8 -1.4,-2.3 h -1.5 l -0.1,-2.5 1.6,-1.7 0.8,-2.9 1.5,-3 3.3,0.7 0.4,-0.9 -1.9,-1.4 0.1,-1.8 -1.5,-3.8 0.6,-1 3.4,-4.4 2.4,-2.7 4.8,-4.6 3,-0.5 1.2,-1.8 -0.1,-1.3 -1.8,-2.6 1.2,-1.3 -1.4,-1 -1.9,-2.8 -2.7,-2.8 v -1.3 l -1.2,-1.8 -0.1,-1.4 1.1,-0.5 1.9,0.3 1.1,0.5 1.9,-1.2 1.6,-1.6 0.8,-1.4 5.9,-0.5 2.3,-0.5 2.4,-0.1 7.8,0.4 6.5,1.5 6.1,0.9 h 2.3 l 1.8,2.1 1,0.3 3,-0.1 1.1,0.4 0.8,1.4 1.2,-1.7 1.9,0.5 1.9,-0.7 5.1,1 0.8,1.3 1,0.3 0.6,-1.1 3.8,-1.6 2.5,3 0.6,0.5 2.3,-0.8 7.1,-0.6 2,1.1 0.5,1.2 2.7,0.9 0.8,-1.4 -1.8,-3.6 1,-3.3 0.8,-1.2 2.2,-2.3 1.1,-0.5 1.7,0.4 1.4,-0.8 5,0.1 2.6,0.8 1.7,-0.1 1.8,-0.9 0.5,-2.4 1.6,-0.6 3.7,0.9 1,-0.1 2.7,-1.2 1.6,-0.2 2,0.3 3.4,-0.2 2.5,1.4 1.4,1.4 1.7,2.7 4,3 -0.1,1 -2.9,0.5 1.3,1.9 0.5,2 1.2,1.7 -0.4,1 3.1,0.1 2.9,1 4.1,-0.5 1.5,2.2 1.9,0.2 0.2,0.9 1.4,2.8 0.9,1.1 -0.2,1.8 0.5,1 1.9,1.6 0.7,1 1.1,0.4 2.3,-1.4 2.8,0.4 2.7,2 h 2.3 l 1.7,1.1 1.4,-1.3 4.3,-0.9 2.3,-1 1,0.1 2.3,1.8 0.5,1.2 1.5,1.6 4.7,2.9 1.3,-0.6 0.9,-1.5 2.6,1.4 2.4,0.2 3.6,1.9 1.4,0.1 1.6,-0.6 2,1.8 1.9,0.2 4.4,2.3 2.9,-0.3 1,0.8 -0.1,1.7 1,0.9 -0.1,2.6 -1.7,2.1 -2.3,0.8 1.1,1.5 3.1,0.9 -0.9,0.9 -1.4,-0.2 -0.8,1 -0.3,2.3 2.5,0.7 1.2,2.8 v 1.1 l 1.2,0.3 -1.3,4.7 -0.1,1.8 -4.2,0.2 -6,-0.3 -0.9,0.2 -0.9,1.9 -2.3,1.4 -1.7,0.2 -0.8,0.8 v 2.3 l -0.4,1.3 1.1,0.7 -0.7,1.6 0.5,1.3 -0.5,0.1 -4.3,-0.2 -3.4,0.3 -2.1,2.4 h -1.5 l -3.2,1.5 -1.4,1.7 -1.4,-0.8 -3.1,0.5 -1.7,1.1 -3.1,-0.1 -2.3,0.6 -4.6,3.8 -1.3,0.1 -1,-1 -1.6,2.6 -2.4,1.2 0.6,3.1 2.8,4.5 3.6,3.9 1.7,1.4 2.4,0.7 3.1,-1.4 2.4,0.4 1.7,-1.2 1.5,-0.1 3.7,1 -1.1,2.5 -0.3,2.6 -1.9,0.6 -2.2,-0.1 -2.2,0.4 -2.7,-1.5 h -2.5 l -1.1,1.9 -2.3,1.3 -0.6,1.4 -2.6,-0.3 -2.1,0.2 -2.8,1.4 -1.9,2.8 -2.3,1.8 -1.9,0.5 -2,-0.1 -1.3,-0.6 -2.9,-1.8 0.7,-2 0.5,-3.5 -1.2,-2.9 -2.3,-1.4 -1.6,0.2 -0.9,-0.3 -3.7,-2.4 -1.9,-0.2 -1.9,0.5 -1.5,-1.2 3.5,-2.9 3.5,-2.4 1.7,-0.2 2.1,-1.2 2.2,-1.6 -1.3,-2.3 -1.9,0.6 -2.2,-1.1 -0.9,-0.8 -3.1,0.8 -1.8,-0.1 -3.8,0.8 -1.9,-0.8 -4,-2 -2.6,-0.3 v -1 l 1.8,-0.3 0.1,-1 -3.8,-0.6 -0.1,-1.3 2,0.5 3.2,0.2 2.9,0.5 2.1,-1.8 -2.4,0.5 -2.9,-0.5 -2.1,-1.8 -2.2,1.2 -3.2,-0.5 -2.4,0.8 -2.3,-0.2 -4.1,1.1 -0.4,2.9 -2,4 -3.1,3.7 -4.6,2.1 -1.7,-0.4 -0.9,1.1 0.2,1.3 1,0.9 1.1,3.1 z"
     id="UA"
     name="Ukraine" />
  <circle
     cx="399.9"
     cy="390.8"
     id="0" />
  <circle
     cx="575.4"
     cy="412"
     id="1" />
  <circle
     cx="521"
     cy="266.6"
     id="2" />
</svg>
